<svg id="Layer_1" data-name="Layer 1" xmlns="http://www.w3.org/2000/svg" xmlns:xlink="http://www.w3.org/1999/xlink" viewBox="0 0 471.18 22.6"><defs><style>.cls-1{fill:none;}.cls-2{clip-path:url(#clip-path);}.cls-3{fill:#7e7e7e;}.cls-4{fill:#7e7e7e;}</style><clipPath id="clip-path" transform="translate(0 0)"><rect class="cls-1" width="471.18" height="22.6"/></clipPath></defs><title>cards</title><g class="cls-2"><path class="cls-3" d="M22.78,16.66l2.4-2.58v5.25Zm-7.66-1.93v1.19h3.44v1.34H15.12v1.31H19l1.79-1.93L19,14.72H15.12Zm42.6,1a2.87,2.87,0,0,1,.78,2.15c0,2-1.32,3.15-3.54,3.15h-3a1.06,1.06,0,0,1-1-.65,4,4,0,0,1-2.36.65H45.51A1,1,0,0,1,45,20.88a1.05,1.05,0,0,1-.47.12H39.34a1.06,1.06,0,0,1-.48-0.12,1.06,1.06,0,0,1-.48.12H36.81a1.08,1.08,0,0,1-1.08-1.08V19c0-.09,0-0.23,0-0.35h-0.9v1.32A1.08,1.08,0,0,1,33.73,21H32.16a1.08,1.08,0,0,1-1.08-1.08V18.25a4.58,4.58,0,0,1-2.38.55H27.82v1.12A1.08,1.08,0,0,1,26.74,21h-3a1.09,1.09,0,0,1-.81-0.36l-1.13-1.28-1.19,1.3a1.1,1.1,0,0,1-.8.35h-6.2a1.08,1.08,0,0,1-1.09-1.08V13.37a1.08,1.08,0,0,1,1.09-1.09h6.3a1.06,1.06,0,0,1,.81.36l1.14,1.27L23,12.63a1.07,1.07,0,0,1,.79-0.35h5a4.36,4.36,0,0,1,2.42.6,1.07,1.07,0,0,1,1-.6h3.62a4.85,4.85,0,0,1,2.39.44,1.93,1.93,0,0,1,.21.16,1.07,1.07,0,0,1,1-.6h5.22a1.07,1.07,0,0,1,.93.57,3.6,3.6,0,0,1,2.06-.57H50.7a1.07,1.07,0,0,1,1,.72A3.46,3.46,0,0,1,54,12.28H57.1a1.08,1.08,0,0,1,1.08,1.09v1.39a1.08,1.08,0,0,1-.49.91l0,0m-26.29-.18c0-1.81-1.4-2.16-2.64-2.16h-5l-2,2.15-1.93-2.15h-6.3v6.56h6.2l2-2.17,1.92,2.17h3v-2.2h2c1.36,0,2.73-.38,2.73-2.2m5.93,1.35a1.84,1.84,0,0,0,1.11-1.75,1.54,1.54,0,0,0-.8-1.45,3.87,3.87,0,0,0-1.88-.3H32.16v6.55h1.57V17.53h1.68a1.51,1.51,0,0,1,1.14.28,1.9,1.9,0,0,1,.26,1.28v0.82h1.58v-1.3a1.92,1.92,0,0,0-.26-1.2,1.67,1.67,0,0,0-.76-0.55m7.21-3.51H39.34v6.55h5.23V18.56H40.9V17.25h3.58V15.91H40.9V14.72h3.67V13.37ZM51,17.85a1.8,1.8,0,0,0-.47-1.38,2.53,2.53,0,0,0-1.79-.53l-0.84,0a1.94,1.94,0,0,1-.61-0.07A0.51,0.51,0,0,1,47,15.35a0.51,0.51,0,0,1,.24-0.48,1.08,1.08,0,0,1,.63-0.12H50.7V13.36H47.56a2,2,0,0,0-2.24,2c0,2.07,1.84,2,3.3,2a0.81,0.81,0,0,1,.56.14,0.57,0.57,0,0,1,.19.44,0.59,0.59,0,0,1-.19.43,0.93,0.93,0,0,1-.64.16h-3v1.41h3c1.57,0,2.46-.65,2.46-2.07m6.4,0a1.81,1.81,0,0,0-.46-1.38,2.56,2.56,0,0,0-1.79-.53l-0.85,0a2,2,0,0,1-.61-0.07,0.51,0.51,0,0,1-.34-0.49,0.5,0.5,0,0,1,.23-0.48,1.11,1.11,0,0,1,.63-0.12H57.1V13.36H54a2,2,0,0,0-2.24,2c0,2.07,1.84,2,3.3,2a0.79,0.79,0,0,1,.55.14,0.55,0.55,0,0,1,.19.44,0.59,0.59,0,0,1-.19.43,0.93,0.93,0,0,1-.64.16h-3v1.41h3c1.58,0,2.46-.65,2.46-2.07M28.78,14.72h-2v1.66h2a0.84,0.84,0,0,0,1-.86,0.8,0.8,0,0,0-1-.8m0.93-10A0.67,0.67,0,0,0,30,4.15a0.6,0.6,0,0,0-.33-0.59A1.68,1.68,0,0,0,29,3.45H27V4.91h1.9a1.48,1.48,0,0,0,.78-0.14m6.7,10.07a1.55,1.55,0,0,0-.75-0.12H33.73V16.2h1.91a1.5,1.5,0,0,0,.77-0.14,0.7,0.7,0,0,0,.32-0.63,0.62,0.62,0,0,0-.33-0.59M42.2,3.2L41.12,5.81h2.16ZM3.95,5.81H6.08L5,3.2Zm8.77,3.91a1.08,1.08,0,0,1-1-.64l-0.21-.47v0a1.08,1.08,0,0,1-1.08,1.08H7.25a1.07,1.07,0,0,1-1-.67L5.93,8.26H4.11l-0.33.79a1.08,1.08,0,0,1-1,.67H1.08a1.07,1.07,0,0,1-.9-0.48,1.08,1.08,0,0,1-.09-1l2.8-6.55a1.09,1.09,0,0,1,1-.66H6.21a1.08,1.08,0,0,1,1,.66L7.79,3V2.09A1.09,1.09,0,0,1,8.88,1h2.56a1.08,1.08,0,0,1,1,.63l1,2.22,0.93-2.19a1.09,1.09,0,0,1,1-.66H18a1,1,0,0,1,.59.2A1,1,0,0,1,19.15,1h5.23a1.07,1.07,0,0,1,.54.17A1.07,1.07,0,0,1,25.46,1h3.6a4.62,4.62,0,0,1,2.44.46,1.69,1.69,0,0,1,.2.15,1.09,1.09,0,0,1,1-.61h1.6a1.07,1.07,0,0,1,1,.92A4.29,4.29,0,0,1,38.25,1h1.51a1.11,1.11,0,0,1,.65.21A1.06,1.06,0,0,1,41.06,1h2.35a1.08,1.08,0,0,1,1,.66L45,3V2.09A1.08,1.08,0,0,1,46.06,1h2.38a1.1,1.1,0,0,1,.93.53l0.74,1.23V2.08A1.08,1.08,0,0,1,51.2,1h1.6a1.08,1.08,0,0,1,1.08,1.08V8.64A1.08,1.08,0,0,1,52.8,9.72H50.59a1.08,1.08,0,0,1-.93-0.52l-1-1.59v1a1.08,1.08,0,0,1-1.08,1.08H44.43a1.08,1.08,0,0,1-1-.67l-0.33-.79H41.29L41,9a1.08,1.08,0,0,1-1,.67H38.14a4.55,4.55,0,0,1-2.84-.87,1.06,1.06,0,0,1-1,.87h-1.6a1.09,1.09,0,0,1-.5-0.13,1,1,0,0,1-.48.13H30.11A1.08,1.08,0,0,1,29,8.65v-1c0-.08,0-0.22,0-0.33H28.11v1.3A1.08,1.08,0,0,1,27,9.72H25.46a1,1,0,0,1-.54-0.17,1,1,0,0,1-.54.17H19.15a1.09,1.09,0,0,1-.58-0.19,1.11,1.11,0,0,1-.59.19h-1.6a1.08,1.08,0,0,1-1.08-1.08v0l-0.21.46a1.08,1.08,0,0,1-1,.64H12.72ZM35,5.41a3.28,3.28,0,0,0,.84,2.5,3.3,3.3,0,0,0,2.27.73H40l0.59-1.47h3.26l0.61,1.47h3.19V3.72l3,4.92H52.8V2.08H51.2V6.65L48.44,2.08H46.06v6.2l-2.65-6.2H41.06L38.85,7.24h-0.7a1.51,1.51,0,0,1-1.09-.34,2.28,2.28,0,0,1-.43-1.54,2.15,2.15,0,0,1,.45-1.48,1.49,1.49,0,0,1,1.2-.39h1.49V2.08H38.25a3.2,3.2,0,0,0-2.38.76A3.53,3.53,0,0,0,35,5.41m3.26-.85a0.57,0.57,0,0,0-.45.08,1.71,1.71,0,0,0-.12.71,1.76,1.76,0,0,0,.12.76,1.12,1.12,0,0,0,.31,0l0.68-1.59H38.28ZM32.67,8.64h1.6V2.08h-1.6V8.64Zm-7.2,0H27V6.25h1.68a1.52,1.52,0,0,1,1.15.28,2,2,0,0,1,.24,1.28V8.63h1.58V7.35a1.9,1.9,0,0,0-.26-1.21,1.77,1.77,0,0,0-.78-0.55,1.85,1.85,0,0,0,1.1-1.75A1.53,1.53,0,0,0,31,2.4a3.69,3.69,0,0,0-1.9-.31h-3.6V8.64Zm-6.32,0h5.24V7.28H20.71V6h3.58V4.63H20.71V3.45h3.67V2.08H19.14V8.64Zm-6.42,0h1.37l2.27-5.14V8.64H18V2.08H15.37L13.48,6.53,11.43,2.08H8.87V8.29L6.21,2.08H3.88L1.08,8.64h1.7L3.39,7.17H6.65l0.6,1.47h3.19V3.5Z" transform="translate(0 0)"/><path class="cls-4" d="M183.15,14.56h-5.09V5.37h5.09V6.93h-3.29V9H183v1.56h-3.17V13h3.29v1.56Zm3,0h-1.8V5.37H187c2.07,0,3.26,1,3.26,2.71a2.45,2.45,0,0,1-2.09,2.61l2.89,3.87h-2.21l-2.48-3.69h-0.23v3.69Zm0-5h0.52c1.14,0,1.75-.5,1.75-1.42s-0.6-1.36-1.72-1.36h-0.55V9.6ZM173.28,14.8l4-9.42h-1.94l-2.49,6.17-2.45-6.17h-2l3.9,9.42h1Zm17.67-8.5h-0.2V5.49H191a0.25,0.25,0,0,1,.31.25,0.23,0.23,0,0,1-.18.23L191.4,6.3h-0.24L190.94,6V6.3h0Zm0-.45h0c0.1,0,.15,0,0.15-0.1s0-.11-0.14-0.11h0V5.85Zm-48.81,8.71h1.79V5.37h-1.79v9.19ZM141.31,10a4.61,4.61,0,0,1-1.67,3.53,4.81,4.81,0,0,1-3.28,1.07h-2.62V5.37h2.63c2.91,0,4.94,1.88,4.94,4.6m-1.85,0a3.1,3.1,0,0,0-1-2.29A3.33,3.33,0,0,0,136,6.93h-0.48V13H136a3.39,3.39,0,0,0,2.45-.73,3.15,3.15,0,0,0,1-2.32m24.63,4.93a4.89,4.89,0,0,0,4.68-3.44c0-.08,0-0.17.07-0.26s0-.14.05-0.21a4.76,4.76,0,0,0,.09-1,4.89,4.89,0,1,0-4.89,4.89m-7.72-.12a4.85,4.85,0,0,0,2.25-.54V12.12a2.87,2.87,0,0,1-2.16,1A3,3,0,0,1,153.36,10a3.06,3.06,0,0,1,3-3.16,3,3,0,0,1,2.24,1V5.73a4.5,4.5,0,0,0-2.2-.57,4.83,4.83,0,0,0-4.9,4.81,4.76,4.76,0,0,0,4.85,4.8m34-8.88a0.7,0.7,0,1,1,.71.7,0.7,0.7,0,0,1-.71-0.7m0.14,0a0.57,0.57,0,0,0,.56.57,0.57,0.57,0,0,0,.55-0.57,0.56,0.56,0,1,0-1.12,0m-42.17,3c-1.08-.4-1.4-0.66-1.4-1.15a1.18,1.18,0,0,1,1.34-1,1.85,1.85,0,0,1,1.45.74l0.94-1.23a4,4,0,0,0-2.7-1,2.7,2.7,0,0,0-2.86,2.64c0,1.26.57,1.91,2.26,2.52a7.45,7.45,0,0,1,1.24.52,1.11,1.11,0,0,1,.54,1,1.31,1.31,0,0,1-1.39,1.3,2.12,2.12,0,0,1-2-1.22L144.6,13a3.58,3.58,0,0,0,3.18,1.75,3,3,0,0,0,3.18-3c0-1.46-.61-2.12-2.64-2.86" transform="translate(0 0)"/><path class="cls-4" d="M236.84,9.41h0V7.79h2.12l0,0h0l0,0,0,0,0,0,0,0,0,0,0,0,0,0,0,0,0,0,0,0.05,0,0.06,0,0.07a0.64,0.64,0,0,1,0,.11,0.89,0.89,0,0,1,0,.38,0.75,0.75,0,0,1,0,.11l0,0.08,0,0.06,0,0,0,0,0,0,0,0,0,0,0,0,0,0,0,0,0,0h0l0,0h-2.13Zm0,2.75h2.34l0,0,0,0,0,0,0,0,0,0,0,0,0,0,0,0,0,0,0,0,0,0,0-.05,0-.06,0-.08,0-.11a1,1,0,0,0,0-.41s0-.07,0-0.11l0-.08,0-.06,0-.05,0,0,0,0,0,0,0,0,0,0,0,0,0,0,0,0,0,0,0,0h0l0,0,0,0h-2.27v1.76ZM234.13,0H228l0,0h-0.06l0,0h-0.07l0,0h0l0,0,0,0,0,0,0,0,0,0,0,0,0,0,0,0,0,0,0,0,0,0,0,0,0,0,0,0,0,0,0,0,0,0,0,0,0,0,0,0,0,0,0,0,0,0,0,0,0,0,0,0,0,0,0,0,0,0,0,0,0,0,0,0,0,0,0,0,0,0,0,0,0,0,0,0,0,0,0,0.05,0,0.05,0,0.05,0,0.06,0,0.06,0,0.06,0,0.06,0,0.07,0,0.08,0,0.08,0,0.09,0,0.09,0,0.1,0,0.12,0,0.14a3.37,3.37,0,0,0-.07.68V7.7L226,7.64l0,0,0,0,0,0,0,0,0,0,0,0,0,0,0,0,0,0,0,0,0,0,0,0,0,0,0,0,0,0,0,0,0,0,0,0h0l0,0,0,0h0l0,0,0,0,0,0h0l0,0H227l0,0h0.1l0,0h0.07l0,0h6V8.43l0,0h0l0,0h0l0,0,0,0,0,0,0,0-0.06,0h-0.06l0,0,0,0h0l0,0,0,0h0l0,0h0l0,0-0.06,0,0,0h-0.07l-0.06,0h-0.1l-0.06,0h-3.08l0,0h0l0,0,0,0h0l0,0,0,0,0,0h0l0,0,0,0,0,0,0,0,0,0,0,0,0,0,0,0,0,0,0,0,0,0,0,0,0,0,0,0,0,0,0,0,0,0,0,0,0,0,0,0,0,0.05,0,0.05,0,0.06,0,0.06,0,0.07L228,9l0,0.09,0,0.1s0,0.08,0,.12a1.48,1.48,0,0,0,0,.15c0,0.08,0,.15,0,0.23a2.31,2.31,0,0,0,0,.29,2.23,2.23,0,0,0,0,.29,2,2,0,0,0,0,.24s0,0.1,0,.15,0,0.08,0,.12a0.75,0.75,0,0,1,0,.1L228,11l0,0.08,0,0.07,0,0.06,0,0.05,0,0.06,0,0.05,0,0,0,0,0,0,0,0,0,0,0,0,0,0,0,0,0,0,0,0,0,0,0,0,0,0,0,0,0,0,0,0,0,0,0,0,0,0,0,0,0,0,0,0,0,0,0,0,0,0h0l0,0,0,0h2.52l0.06,0,0.07,0h0.45l0.06,0h0.16l0,0h0.1l0,0h0l0,0h0l0,0h0.07l0,0h0l0,0,0,0,0,0,0,0h0l0.06,0,0,0,0,0h0l0.06,0,0,0V13h0l-0.06,0h-0.1L233,13H233l0,0-0.06,0h-5l-0.06,0h-0.52l0,0H227l0,0h0l0,0,0,0h0l-0.06,0,0,0h0l0,0,0,0h0l0,0,0,0h0l0,0h0l0,0,0,0,0,0,0,0,0,0,0,0,0,0,0,0,0,0,0,0,0,0,0,0,0,0,0,0L226,12.3V20h6.17l0.06,0h0l0,0,0,0,0,0,0,0h0l0,0h0.06l0,0h0l0,0,0,0,0,0,0,0,0,0,0,0,0,0,0,0,0,0,0,0,0,0,0,0,0,0,0,0,0,0,0,0,0,0,0,0,0,0,0,0,0,0,0,0,0,0,0,0,0,0,0,0,0,0,0,0,0,0,0,0,0,0,0,0,0,0,0,0,0,0,0-.05,0-.05,0-.05,0-.06,0-.06,0-.06,0-.06,0-.07,0-.08,0-.08,0-.09,0-.09,0-.11,0-.12c0-.05,0-0.1,0-0.15s0-.14,0-0.2a3.21,3.21,0,0,0,0-.43V0h-0.09Zm-9.22,0h-6.2l0,0h-0.06l0,0,0,0,0,0,0,0,0,0,0,0h0l0,0,0,0,0,0,0,0,0,0,0,0,0,0,0,0,0,0,0,0,0,0,0,0,0,0,0,0,0,0,0,0,0,0,0,0,0,0,0,0,0,0,0,0,0,0,0,0,0,0,0,0,0,0,0,0,0,0,0,0,0,0,0,0,0,0,0,0,0,0.05,0,0,0,0.05,0,0.06,0,0.06,0,0.06,0,0.06L217,2,217,2l0,0.08,0,0.08,0,0.09,0,0.1,0,0.12s0,0.09,0,.14a3.32,3.32,0,0,0-.07.68v8.23l0.07,0,0,0,0,0h0l0,0,0,0,0,0,0.06,0h0l0,0h0l0,0h0.1l0.06,0h0.19l0,0h0.07l0.06,0h0.91l0.06,0h1.78l0,0h0l0,0,0,0,0,0,0,0h0l0,0,0,0,0,0,0,0,0,0,0,0,0,0,0,0,0,0,0,0,0,0,0,0,0,0,0,0,0,0,0-.05,0-.05,0-.06,0-.07,0-.08,0-.1s0-.08,0-0.13a1.82,1.82,0,0,0,0-.22c0-.06,0-0.12,0-0.18V6.81h2.87v3.87c0,0.11,0,.22,0,0.33s0,0.15,0,.23,0,0.1,0,.15l0,0.12,0,0.1,0,0.09,0,0.08,0,0.07,0,0.06L224,12,224,12l0,0.05,0,0,0,0,0,0,0,0,0,0,0,0,0,0,0,0,0,0,0,0,0,0,0,0,0,0,0,0,0,0,0,0,0,0,0,0,0,0,0,0,0,0,0,0,0,0,0,0,0,0,0,0,0,0h0l0,0,0,0h0l0,0h0l0,0,0,0,0,0h0l0,0h-1.13l0,0h-4.48L217,13h-0.2l-0.07,0v7H223l0,0,0,0,0,0,0,0,0,0h0l0,0,0,0,0,0,0,0,0,0,0,0,0,0,0,0,0,0,0,0,0,0,0,0,0,0,0,0,0,0,0,0,0,0,0,0,0,0,0,0,0,0,0,0,0,0,0,0,0,0,0,0,0,0,0,0,0,0,0,0,0,0,0,0,0,0,0,0,0,0,0,0,0,0,0-.05,0,0,0-.05,0-.05,0-.06,0-.06,0-.06,0-.07,0-.07,0-.07,0-.08,0-.08,0-.1,0-.11,0-.12s0-.1,0-0.15l0-.2a4.18,4.18,0,0,0,0-.42V0h-0.08Zm18.45,0h-6.22l0,0,0,0h0l0,0h0l0,0,0,0h0l0,0,0,0,0,0,0,0,0,0,0,0,0,0,0,0,0,0,0,0,0,0,0,0,0,0,0,0,0,0,0,0,0,0,0,0,0,0,0,0,0,0,0,0,0,0,0,0,0,0,0,0,0,0,0,0,0,0,0,0,0,0,0,0,0,0,0,0,0,0,0,0,0,0.05,0,0,0,0.05,0,0.06,0,0.06,0,0.07,0,0.07,0,0.07,0,0.07,0,0.08,0,0.08,0,0.09,0,0.1,0,0.12a1.46,1.46,0,0,0,0,.14,3.28,3.28,0,0,0-.07.68V6.79h6l0,0,0,0h0l0,0h0l0,0,0,0,0,0,0,0,0,0,0,0,0,0,0,0,0,0,0,0,0,0,0,0,0,0,0,0,0,0,0,0,0,0,0,0,0,0,0,0.05,0,0.06,0,0.07,0,0.09a1,1,0,0,1,0,.12,1.63,1.63,0,0,1,0,.19c0,0.05,0,.11,0,0.16s0,0.1,0,.16a1.57,1.57,0,0,1,0,.19,0.8,0.8,0,0,1,0,.11l0,0.09L242,9l0,0.06,0,0.06,0,0,0,0.05,0,0,0,0,0,0,0,0,0,0,0,0,0,0,0,0,0,0,0,0,0,0,0,0,0,0,0,0,0,0,0,0,0,0h0l0,0,0,0h0l0,0,0,0h-0.52v0h0.81l0,0h0.1l0,0h0l0,0,0,0h0l0,0,0,0,0,0,0,0,0,0,0,0,0,0,0,0,0,0,0,0,0,0,0,0,0,0,0,0,0,0,0,0,0,0,0,0,0,0.05,0,0.05,0,0.06,0,0.07,0,0.08,0,0.1c0,0.05,0,.11,0,0.16a1.17,1.17,0,0,1,0,.21,1.25,1.25,0,0,1,0,.22c0,0.06,0,.11,0,0.17l0,0.11,0,0.08,0,0.07,0,0.06,0,0.06,0,0,0,0,0,0,0,0,0,0,0,0,0,0,0,0,0,0,0,0,0,0,0,0,0,0,0,0,0,0,0,0,0,0,0,0,0,0,0,0,0,0,0,0h0l0,0,0,0h-0.07l0,0h-6.2V20h6l0,0h0.16l0,0h0.07l0,0,0,0,0,0,0,0,0,0h0l0,0,0,0,0,0,0,0,0,0,0,0,0,0,0,0,0,0,0,0,0,0,0,0,0,0,0,0,0,0,0,0,0,0,0,0,0,0,0,0,0,0,0,0,0,0,0,0,0,0,0,0,0,0,0,0,0,0,0,0,0,0,0,0,0,0,0,0,0,0,0,0,0,0,0,0,0-.05,0-.05,0-.05,0-.06,0-.06,0-.07,0-.07,0-.07,0-.08,0-.08,0-.09,0-.1,0-.12s0-.09,0-0.13,0-.11,0-0.17,0-.17,0-0.25,0-.19,0-0.3V0h-0.07Z" transform="translate(0 0)"/><path class="cls-4" d="M301,15.27a0.32,0.32,0,0,0-.16,0,0.34,0.34,0,0,0-.16,0,0.29,0.29,0,0,0-.12.12,0.33,0.33,0,0,0,0,.16,0.35,0.35,0,0,0,0,.16,0.35,0.35,0,0,0,.12.12,0.33,0.33,0,0,0,.32,0,0.32,0.32,0,0,0,.12-0.12,0.34,0.34,0,0,0,0-.16,0.37,0.37,0,0,0,0-.16,0.31,0.31,0,0,0-.12-0.12m-0.08.46,0-.06a0.27,0.27,0,0,0-.06-0.08h-0.07v0.15H300.7V15.38h0.2l0,0a0.07,0.07,0,0,1,0,.05,0.1,0.1,0,0,1-.1.1l0,0,0.05,0.07,0,0.07h-0.07Zm0-.21h-0.14v-0.1h0.12l0,0a0.06,0.06,0,0,1,0,0,0,0,0,0,1,0,0M300.57,12a0.25,0.25,0,0,0-.1.1,0.28,0.28,0,0,0,0,.13,0.32,0.32,0,0,0,0,.14,0.33,0.33,0,0,0,.1.1,0.28,0.28,0,0,0,.13,0,0.26,0.26,0,0,0,.13,0,0.26,0.26,0,0,0,.1-0.1,0.24,0.24,0,0,0,0-.14,0.27,0.27,0,0,0,0-.13,0.23,0.23,0,0,0-.1-0.1,0.27,0.27,0,0,0-.13,0,0.27,0.27,0,0,0-.13,0m0.24,0.11a0.1,0.1,0,0,1,0,.05,0.11,0.11,0,0,1,0,.07,0.1,0.1,0,0,1-.07,0l0,0,0.05,0.07,0,0.07h-0.07l0-.05a0.25,0.25,0,0,0-.06-0.08h-0.08v0.15h-0.06V12.07h0.21l0,0m-0.13,0h0.05l0,0a0,0,0,0,1,0,0,0.05,0.05,0,0,1,0,0h-0.13v-0.1h0.06Zm-7.39-1.43a0.64,0.64,0,0,1,.23,0,0.94,0.94,0,0,1-.75,1,0.38,0.38,0,0,1-.42-0.4c0-.29.16-0.64,0.94-0.64m-17.25,0a0.6,0.6,0,0,1,.23,0,0.94,0.94,0,0,1-.75,1,0.39,0.39,0,0,1-.42-0.4c0-.29.16-0.64,0.94-0.64M291.84,0a10,10,0,0,0-6.71,2.59A10,10,0,0,0,278.44,0h-0.07a10,10,0,1,0,6.77,17.41,10.24,10.24,0,0,1-1-1.09h2.06a10.15,10.15,0,0,1-1,1.07h0l0,0A10,10,0,0,0,301.84,10h0a10,10,0,0,0-10-10m-7.62,3.62h1.9a10.62,10.62,0,0,1,.78,1.07h-3.39c0.22-.36.46-0.72,0.71-1.07m-1.3,2.12h4.56a10.88,10.88,0,0,1,.43,1.07h-5.53c0.06-.1.25-0.52,0.54-1.07m-10.41,6.81,0.61-3.82-1.37,3.82H271l-0.09-3.82-0.65,3.82h-1l0.85-5.07h1.55l0.06,3.11,1-3.11h1.68l-0.84,5.07h-1.09Zm3.63,0,0-.41a1.4,1.4,0,0,1-1.09.49,1,1,0,0,1-1-1.15A1.63,1.63,0,0,1,276,9.9l0.45,0a0.67,0.67,0,0,0,0-.27c0-.32-0.29-0.37-0.69-0.37a3.35,3.35,0,0,0-1.16.19l0.16-.92A3.7,3.7,0,0,1,276,8.32a1.26,1.26,0,0,1,1.46,1.28l-0.42,2.93h-0.94Zm4-1.29a1.37,1.37,0,0,1-1.61,1.35,3.41,3.41,0,0,1-1.19-.13l0.14-.93a3.57,3.57,0,0,0,.95.16c0.29,0,.66,0,0.66-0.37,0-.51-1.33-0.39-1.33-1.61a1.36,1.36,0,0,1,1.58-1.39,4.94,4.94,0,0,1,1,.08l-0.13.94-0.73,0c-0.38,0-.59.08-0.59,0.35,0,0.53,1.27.27,1.27,1.59m1.65,0.37c0.1,0,.2,0,0.28,0l-0.14.91a2.73,2.73,0,0,1-.8.14,0.79,0.79,0,0,1-.85-0.9c0-.42.61-3.9,0.63-3.92h1.06l-0.11.62h0.53l-0.13,1h-0.56l-0.3,1.85c0,0.14,0,.34.39,0.34m2.34-3.31a1.43,1.43,0,0,1,1.52,1.56,7.61,7.61,0,0,1-.14,1h-2.16s-0.2.85,0.94,0.85a3.33,3.33,0,0,0,1.13-.26l-0.19,1a2.7,2.7,0,0,1-1.12.18,1.67,1.67,0,0,1-1.84-1.86c0-1.3.79-2.46,1.86-2.46m2.82,7h-3.55a9.69,9.69,0,0,1-.59-1.07h4.72a9.37,9.37,0,0,1-.58,1.07m-0.24-2.74h-1.09l0.67-4.13h1l-0.09.6A1.23,1.23,0,0,1,288,8.38h0.2a4.16,4.16,0,0,0-.4,1.24c-0.74-.26-0.79,1.17-1.11,2.93m4.16-.06a4.94,4.94,0,0,1-.93.15c-1.27,0-1.91-.88-1.91-2.2,0-2,1.19-3.07,2.42-3.07a3.79,3.79,0,0,1,1.2.26l-0.17,1.13a1.9,1.9,0,0,0-1-.31c-0.72,0-1.37.69-1.37,1.95a1.05,1.05,0,0,0,1.06,1.2,2.53,2.53,0,0,0,.88-0.26Zm2.56,0.05,0-.41a1.39,1.39,0,0,1-1.09.49,1,1,0,0,1-1-1.15A1.63,1.63,0,0,1,293.2,9.9l0.46,0a0.67,0.67,0,0,0,0-.27c0-.32-0.29-0.37-0.69-0.37a3.33,3.33,0,0,0-1.16.19L292,8.56a3.73,3.73,0,0,1,1.29-.23,1.26,1.26,0,0,1,1.46,1.28l-0.42,2.93H293.4m2.21,0h-1.09l0.66-4.13h1l-0.1.6a1.24,1.24,0,0,1,.83-0.65h0.21a4.13,4.13,0,0,0-.4,1.24c-0.74-.26-0.79,1.17-1.11,2.93m5.37-.47a0.31,0.31,0,0,1,0,.16,0.33,0.33,0,0,1,0,.16,0.31,0.31,0,0,1-.12.12,0.31,0.31,0,0,1-.16,0,0.33,0.33,0,0,1-.16,0,0.33,0.33,0,0,1-.16-0.28,0.3,0.3,0,0,1,0-.16,0.32,0.32,0,0,1,.12-0.12,0.33,0.33,0,0,1,.32,0,0.27,0.27,0,0,1,.12.12m-1.55-3.17,0.23-1.43h1.07l-0.82,5.06h-1l0-.38a1.33,1.33,0,0,1-1,.44,1.51,1.51,0,0,1-1.32-1.73c0-1.35.81-2.53,1.79-2.53a1.42,1.42,0,0,1,1,.56M284.59,10h-1.18a0.77,0.77,0,0,1,.69-0.73c0.6,0,.49.68,0.49,0.73m14-.61c0.38,0,.58.26,0.58,0.88a1.18,1.18,0,0,1-.85,1.31c-0.38,0-.57-0.32-0.57-0.83a1.15,1.15,0,0,1,.84-1.37" transform="translate(0 0)"/><path class="cls-4" d="M340.08,5.86A2.94,2.94,0,0,0,339,4.68,5,5,0,0,0,337.23,4a14,14,0,0,0-2.37-.19h-4.2a1,1,0,0,0-1,.77l-2.83,12.31a0.6,0.6,0,0,0,.61.77h2a1,1,0,0,0,1-.77l0.7-3a1,1,0,0,1,1-.76h0.58a9.54,9.54,0,0,0,5.73-1.52,4.7,4.7,0,0,0,2.06-4,3.7,3.7,0,0,0-.39-1.82m-4.34,4a4.19,4.19,0,0,1-2.55.67h-0.49a0.6,0.6,0,0,1-.62-0.77l0.61-2.62a1,1,0,0,1,1-.77h0.66a3.17,3.17,0,0,1,1.75.39,1.33,1.33,0,0,1,.58,1.2,2.19,2.19,0,0,1-.91,1.89m27.66-1.6-8,13.56a1.68,1.68,0,0,1-1.26.76H352c-0.43,0-.57-0.34-0.31-0.76l1.78-3.11a2.07,2.07,0,0,0,0-1.2c-0.27-1.83-1.64-9.62-1.64-9.62a0.6,0.6,0,0,1,.6-0.77h1.8a1.11,1.11,0,0,1,1.1.79l0.89,5.4h0.34c0.28-.5,3.16-5.45,3.16-5.45A1.74,1.74,0,0,1,361,7.13h2.41c0.72,0-.06,1.14-0.06,1.14m13.22-2.37a3,3,0,0,0-1.1-1.19,5,5,0,0,0-1.75-.64,13.43,13.43,0,0,0-2.37-.18h-4.21a1,1,0,0,0-1,.76L363.4,17a0.6,0.6,0,0,0,.61.76h2a1,1,0,0,0,1-.76l0.69-3a1,1,0,0,1,1-.76h0.57A9.63,9.63,0,0,0,375,11.71a4.77,4.77,0,0,0,2-4,3.92,3.92,0,0,0-.39-1.81m-4.34,4a4.28,4.28,0,0,1-2.54.66h-0.5a0.6,0.6,0,0,1-.62-0.77l0.61-2.61a1,1,0,0,1,1-.77h0.65a3.25,3.25,0,0,1,1.75.39,1.38,1.38,0,0,1,.59,1.2,2.24,2.24,0,0,1-.91,1.9m-22.5-2.32A7.6,7.6,0,0,0,346.19,7a15.44,15.44,0,0,0-2.44.19,9.55,9.55,0,0,0-1,.19,1.18,1.18,0,0,0-.89.93l-0.24,1c-0.13.64,0.24,0.62,0.39,0.56a10.54,10.54,0,0,1,1.2-.35,8.59,8.59,0,0,1,1.89-.25,4.87,4.87,0,0,1,1.83.26,0.91,0.91,0,0,1,.6.91l0,0.28-0.29.18c-1.15.07-2,.18-3,0.32a9.34,9.34,0,0,0-2.55.7,4,4,0,0,0-1.73,1.37,3.71,3.71,0,0,0-.58,2.1,2.47,2.47,0,0,0,.82,1.91,3.08,3.08,0,0,0,2.12.72,5.55,5.55,0,0,0,1.26-.11l1-.34,0.82-.46,0.76-.5h0l-0.07.32h0a0.6,0.6,0,0,0,.54.75h1.9a1,1,0,0,0,.87-0.75l1.47-6.35,0.08-.51,0-.49a2.12,2.12,0,0,0-1.14-2m-3.24,7.14-0.32.42-0.8.41a2.83,2.83,0,0,1-1.05.23,2.38,2.38,0,0,1-1.14-.22l-0.39-.75a1.51,1.51,0,0,1,.29-1l0.85-.58a7.54,7.54,0,0,1,1.33-.3c0.46-.06,1.37-0.16,1.49-0.16l0.14,0.24c0,0.14-.29,1.22-0.41,1.7m50.24-11.6h0.67V3.44h-0.67V4.58l0,0.16,0.11,0.11,0.2,0,0.17,0,0.13,0h0v0.3l-0.2,0h-0.19L396.6,5l-0.16-.51v-1h-0.22V3.16h0.22V2.6h0.34V3.16ZM386.32,7.63A7.73,7.73,0,0,0,382.73,7a14.64,14.64,0,0,0-2.43.19,10.3,10.3,0,0,0-1,.19,1.16,1.16,0,0,0-.88.93l-0.25,1c-0.14.64,0.23,0.61,0.4,0.56a11.46,11.46,0,0,1,1.19-.35,9.05,9.05,0,0,1,1.9-.26,5,5,0,0,1,1.82.26,0.91,0.91,0,0,1,.61.91l0,0.29-0.29.18c-1.15.07-2,.18-3,0.32a9.32,9.32,0,0,0-2.55.7,4,4,0,0,0-1.73,1.37,3.7,3.7,0,0,0-.58,2.1,2.48,2.48,0,0,0,.83,1.92,3.12,3.12,0,0,0,2.12.72,5.33,5.33,0,0,0,1.27-.11l1-.33,0.83-.46,0.75-.51h0L382.6,17h0a0.58,0.58,0,0,0,.54.75H385a1,1,0,0,0,.86-0.76l1.47-6.34,0.08-.52,0-.48a2.13,2.13,0,0,0-1.15-2m-3.23,7.14-0.33.42L382,15.6a3,3,0,0,1-1.05.22,2.41,2.41,0,0,1-1.14-.21l-0.39-.75a1.56,1.56,0,0,1,.29-1,2,2,0,0,1,.86-0.58,7.41,7.41,0,0,1,1.33-.29c0.46-.07,1.37-0.16,1.48-0.17l0.14,0.25c0,0.14-.28,1.21-0.4,1.7m10.78-10L391.18,17l-0.1.15a1,1,0,0,1-.86.62h-1.87l0,0a0.57,0.57,0,0,1-.5-0.72h0l0.08-.35,2.53-11.45,0.09-.4,0.1-.16A1,1,0,0,1,391.46,4h1.8a0.59,0.59,0,0,1,.61.76m6.68-1.45,0.15,0.54V5.12h-0.33V4l0-.24,0-.18-0.12-.11-0.21,0-0.28.07-0.27.18V5.12h-0.33V4l0-.24,0-.19-0.11-.11-0.22,0-0.27.06-0.27.17V5.11h-0.33v-2h0.33V3.38l0.31-.2,0.33-.07,0.34,0.09,0.21,0.23,0.37-.24,0.35-.07Z" transform="translate(0 0)"/><path class="cls-4" d="M468.19,3.25h-2.85a1.83,1.83,0,0,0-1.94,1.13L457.91,16.8h3.88s0.64-1.67.78-2h4.74c0.11,0.47.45,2,.45,2h3.43ZM463.63,12L465.1,8.2s0.3-.78.49-1.3l0.25,1.17L466.7,12h-3.07Zm-5.46.37c0,2.82-2.55,4.64-6.43,4.64a11.74,11.74,0,0,1-4.12-.72l0.52-3,0.48,0.22a7.77,7.77,0,0,0,3.48.71c1.06,0,2.2-.42,2.21-1.33,0-.59-0.48-1-1.92-1.68s-3.26-1.74-3.23-3.68c0-2.64,2.6-4.48,6.25-4.48a9.47,9.47,0,0,1,3.31.57l-0.5,2.94-0.33-.16a6.82,6.82,0,0,0-2.77-.52c-1.44,0-2.12.6-2.12,1.17s0.78,1.06,2.08,1.68c2.13,1,3.12,2.14,3.1,3.68m-32.46-9,0-.27h5.73a1.49,1.49,0,0,1,1.61,1.1l1.24,6c-1.23-3.13-4.17-5.74-8.63-6.82m16.71-.14L436.6,16.78h-3.91L429.38,5.48a14.47,14.47,0,0,1,5.12,5.62l0.39,1.4,3.62-9.25h3.92Zm1.5,0h3.7L445.3,16.8H441.6Z" transform="translate(0 0)"/><path class="cls-4" d="M95.68,4.58V15.42a5.8,5.8,0,0,0,0-10.83" transform="translate(0 0)"/><path class="cls-4" d="M87.81,10a5.81,5.81,0,0,0,3.72,5.41V4.58A5.82,5.82,0,0,0,87.81,10" transform="translate(0 0)"/><path class="cls-4" d="M98.29,0h-4.7A9.86,9.86,0,0,0,83.5,10.08,10,10,0,0,0,93.58,20h4.7c5.47,0,10.45-4.46,10.45-9.92A10.21,10.21,0,0,0,98.29,0M93.61,19.15A9.15,9.15,0,1,1,102.76,10a9.15,9.15,0,0,1-9.15,9.15" transform="translate(0 0)"/></g></svg>
