<svg id="Layer_1" data-name="Layer 1" xmlns="http://www.w3.org/2000/svg" viewBox="0 0 10.44 20"><defs><style>.cls-1{fill:#7e7e7e;fill-rule:evenodd;}</style></defs><title>fb</title><path class="cls-1" d="M47.69,339.1c0.62,0,1.24,0,1.86,0h0.26v-3.22c-0.33,0-.68-0.08-1-0.1-0.64,0-1.27-.06-1.91,0a4.68,4.68,0,0,0-2.69.83,4,4,0,0,0-1.62,2.69,9.41,9.41,0,0,0-.11,1.38c0,0.72,0,1.45,0,2.17v0.27H39.37v3.6h3.07v9h3.75v-9h3.06l0.47-3.62H46.15s0-1.78,0-2.56A1.33,1.33,0,0,1,47.69,339.1Z" transform="translate(-39.37 -335.73)"/></svg>
