<svg id="Layer_1" data-name="Layer 1" xmlns="http://www.w3.org/2000/svg" viewBox="0 0 20 20"><defs><style>.cls-1{fill:#7e7e7e;fill-rule:evenodd;}</style></defs><title>insta</title><path class="cls-1" d="M91.68,335.73H77.93a3.13,3.13,0,0,0-3.13,3.13V352.6a3.13,3.13,0,0,0,3.13,3.13H91.68a3.13,3.13,0,0,0,3.13-3.13V338.86A3.13,3.13,0,0,0,91.68,335.73Zm-2.59,2.76a0.56,0.56,0,0,1,.56-0.56h2.41a0.56,0.56,0,0,1,.56.56v2.42a0.56,0.56,0,0,1-.56.56H89.65a0.56,0.56,0,0,1-.56-0.56v-2.42Zm-8,5.8a4,4,0,0,1,7.37,0,3.92,3.92,0,0,1,.27,1.44,4,4,0,1,1-7.92,0A3.9,3.9,0,0,1,81.12,344.28Zm11.57,8.32a1,1,0,0,1-1,1H77.93a1,1,0,0,1-1-1v-8.32h2a6.08,6.08,0,1,0,11.81,0h2v8.32Z" transform="translate(-74.81 -335.73)"/></svg>
