<svg id="Layer_1" data-name="Layer 1" xmlns="http://www.w3.org/2000/svg" viewBox="0 0 15.49 20"><defs><style>.cls-1{fill:#7e7e7e;fill-rule:evenodd;}</style></defs><title>pin</title><path class="cls-1" d="M126.28,348.77l0,0.15c-0.74,2.88-.82,3.52-1.57,4.85a14.89,14.89,0,0,1-1.21,1.81,0.21,0.21,0,0,1-.2.13,0.2,0.2,0,0,1-.13-0.21,15.45,15.45,0,0,1-.16-2.63c0-1.15.18-1.54,1.66-7.78a0.43,0.43,0,0,0,0-.26,4.39,4.39,0,0,1-.11-2.91c0.67-2.13,3.08-2.29,3.5-.54,0.26,1.09-.43,2.51-1,4.61-0.44,1.73,1.6,3,3.35,1.7s2.23-4,2.11-5.94c-0.23-3.95-4.56-4.8-7.31-3.53-3.15,1.46-3.87,5.36-2.44,7.14a0.67,0.67,0,0,1,.26.6c-0.09.36-.17,0.72-0.27,1.07a0.38,0.38,0,0,1-.56.25,3.24,3.24,0,0,1-1.32-1,6.23,6.23,0,0,1,0-7,8.36,8.36,0,0,1,8.06-3.56,6.83,6.83,0,0,1,6.28,5.64,9.39,9.39,0,0,1-1.72,6.6c-2,2.54-5.36,2.71-6.89,1.15C126.49,349.06,126.4,348.92,126.28,348.77Z" transform="translate(-119.81 -335.73)"/></svg>
