<svg id="Layer_1" data-name="Layer 1" xmlns="http://www.w3.org/2000/svg" viewBox="0 0 24.58 20"><defs><style>.cls-1{fill:#7e7e7e;fill-rule:evenodd;}</style></defs><title>twitter</title><path class="cls-1" d="M165.75,351.38a5.06,5.06,0,0,1-4.7-3.51,5,5,0,0,0,2.16-.06l0.07,0a5,5,0,0,1-3.28-2.32,4.91,4.91,0,0,1-.74-2.68,5,5,0,0,0,2.25.61,5.08,5.08,0,0,1-2.08-3.06,5,5,0,0,1,.54-3.66,14.45,14.45,0,0,0,10.41,5.28c0-.2-0.06-0.38-0.08-0.55a5,5,0,0,1,8.58-4.18,0.26,0.26,0,0,0,.27.08,10.23,10.23,0,0,0,2.94-1.13l0.07,0h0a5.17,5.17,0,0,1-2.16,2.75,9.72,9.72,0,0,0,2.81-.76l0,0c-0.19.25-.38,0.51-0.58,0.76a9.92,9.92,0,0,1-1.84,1.74,0.17,0.17,0,0,0-.08.16,14,14,0,0,1-.09,2.24,14.86,14.86,0,0,1-1.3,4.5,14.5,14.5,0,0,1-2.73,4,13.5,13.5,0,0,1-6.94,3.87,15.09,15.09,0,0,1-2.81.33,14.27,14.27,0,0,1-8.08-2.17l-0.12-.08a10.23,10.23,0,0,0,5.05-.7A10.1,10.1,0,0,0,165.75,351.38Z" transform="translate(-158.29 -335.73)"/></svg>
